<svg id="Layer_1" data-name="Layer 1" xmlns="http://www.w3.org/2000/svg" viewBox="0 0 1140.74426 1079.64557"><defs><style>.cls-1{fill:#ececec;}.cls-2{fill:#f5f5f5;}.cls-3{fill:#1a2e35;}.cls-4{fill:#375a64;}.cls-5{fill:#fff;}.cls-6{fill:#e1e1e1;}.cls-7{fill:#ffbf9d;}.cls-8{fill:#ff9a6c;}.cls-9{fill:#ff735d;}.cls-10{fill:#fafafa;}.cls-11{opacity:0.3;}</style></defs><path class="cls-1" d="M546.06138,915.77l-26.55673-18.27284s-15.34253,22.29771-38.78927,6.75276c-12.17732-8.07322-12.993-20.24954-11.37289-28.03313a28.88407,28.88407,0,0,1,16.69123-20.20731c9.61435-4.3275,24.12947-4.28626,39.85709,11.18147l41.20056-59.87848-26.25962-18.06792-24.134,35.07528s-43.37966-15.82059-71.30634,24.76671c-26.71991,38.83325,1.899,71.81438,16.80594,82.07123C473.597,939.00134,514.3265,962.96537,546.06138,915.77Z" transform="translate(-388.85063)"/><rect class="cls-1" x="554.71594" y="758.30764" width="32.34901" height="30.21315" transform="matrix(-0.82383, -0.56684, 0.56684, -0.82383, 213.95572, 1734.17788)"/><path class="cls-1" d="M659.293,989.225l14.10253-3.7195s-3.12373-11.8407,9.12555-15.29879a11.80133,11.80133,0,0,1,12.97149,4.36822,13.06954,13.06954,0,0,1,2.00819,11.68677c-1.35145,4.57464-5.64745,9.54163-15.59318,10.37429l8.38735,31.79661,13.94435-3.678-4.913-18.6257s18.22336-10.21436,12.53817-31.76687c-5.43954-20.62164-25.19554-20.53293-33.11133-18.445C672.69979,957.51383,652.4645,964.41678,659.293,989.225Z" transform="translate(-388.85063)"/><rect class="cls-1" x="693.48484" y="1032.90075" width="14.63598" height="13.66937" transform="translate(-630.86139 213.12977) rotate(-14.77678)"/><path class="cls-2" d="M893.54153,98.7902A93.6281,93.6281,0,0,1,916.39025,88.86l4.70659-22.61708,38.212-.66973,5.499,22.4349a93.59123,93.59123,0,0,1,23.18585,9.1213l19.31242-12.65911,27.4941,26.54723-11.97015,19.74125a93.56816,93.56816,0,0,1,9.92948,22.85449l22.61433,4.70634.67148,38.21151-22.43564,5.50052a93.637,93.637,0,0,1-9.12082,23.18285l12.65662,19.31392-26.54324,27.49435-19.74349-11.97089a93.61019,93.61019,0,0,1-22.85274,9.929l-4.70759,22.61683-38.21051.67048-5.5-22.43715a93.6699,93.6699,0,0,1-23.1841-9.12131l-19.31217,12.65912-27.4946-26.54624,11.97039-19.742a93.58884,93.58884,0,0,1-9.93072-22.85274l-22.61533-4.70659-.67048-38.211,22.4364-5.50152a93.71868,93.71868,0,0,1,9.12081-23.1831l-12.65762-19.31267,26.544-27.49461,19.747,11.9719Zm20.36924,50.90387a40.99757,40.99757,0,1,0,57.97048-1.01934A40.99712,40.99712,0,0,0,913.91077,149.69407Z" transform="translate(-388.85063)"/><path class="cls-1" d="M733.51589,19.13224a53.93235,53.93235,0,0,1,13.16018-5.71968L749.387.38609,771.396,0l3.16721,12.922a53.91278,53.91278,0,0,1,13.35458,5.25362l11.12324-7.29129L814.8769,26.17489l-6.89445,11.37039a53.88733,53.88733,0,0,1,5.71918,13.16341l13.02522,2.71065.38684,22.00883-12.92226,3.16822a53.94531,53.94531,0,0,1-5.25337,13.35283l7.28981,11.124L800.9398,118.9093l-11.37189-6.895a53.91051,53.91051,0,0,1-13.16241,5.71893L773.6941,130.76l-22.00833.38609-3.168-12.92326a53.94605,53.94605,0,0,1-13.3531-5.25337l-11.12349,7.2913L708.20515,104.9707l6.8947-11.37089a53.90143,53.90143,0,0,1-5.71993-13.16242l-13.02572-2.7109-.38634-22.00858,12.923-3.16871A53.97515,53.97515,0,0,1,714.144,39.19661L706.8537,28.07287l15.28855-15.83608,11.37364,6.89545Zm11.73224,29.31937a23.61339,23.61339,0,1,0,33.38921-.58726A23.61292,23.61292,0,0,0,745.24813,48.45161Z" transform="translate(-388.85063)"/><path class="cls-1" d="M1435.99734,427.75984a53.928,53.928,0,0,1,13.16016-5.71968l2.7109-13.02647,22.00908-.38609,3.16722,12.922a53.91645,53.91645,0,0,1,13.35458,5.25362l11.12328-7.2913,15.83579,15.29055-6.89442,11.37039a53.89517,53.89517,0,0,1,5.71915,13.16367l13.02522,2.7104.38659,22.00883-12.92226,3.16821a53.93581,53.93581,0,0,1-5.25312,13.35284l7.2898,11.124L1503.421,527.53714l-11.37164-6.8952a53.91089,53.91089,0,0,1-13.16241,5.71893l-2.71162,13.02672-22.00811.38609-3.168-12.923a53.95784,53.95784,0,0,1-13.35331-5.25362l-11.12327,7.29129-15.83608-15.29,6.8947-11.37089a53.88978,53.88978,0,0,1-5.7199-13.16241l-13.026-2.7109-.38606-22.00858,12.92273-3.16872a53.97686,53.97686,0,0,1,5.25337-13.35258l-7.29051-11.12375,15.28852-15.83608,11.37389,6.89546Zm11.73224,29.31936a23.6134,23.6134,0,1,0,33.38922-.58726A23.61294,23.61294,0,0,0,1447.72958,457.0792Z" transform="translate(-388.85063)"/><path class="cls-3" d="M1495.25631,1078.99483c0,.35936-236.96515.65074-529.2087.65074-292.34522,0-529.25967-.29138-529.25967-.65074s236.91445-.65073,529.25967-.65073C1258.29116,1078.3441,1495.25631,1078.63548,1495.25631,1078.99483Z" transform="translate(-388.85063)"/><path class="cls-4" d="M1379.99432,1077.17857l-354.8954-.21041a77.30419,77.30419,0,0,1-77.26167-77.32066l.17393-889.73006a77.30782,77.30782,0,0,1,77.35191-77.29317l354.89685.20842a77.30807,77.30807,0,0,1,77.26067,77.32265l-.17443,889.73206A77.30493,77.30493,0,0,1,1379.99432,1077.17857Z" transform="translate(-388.85063)"/><path class="cls-5" d="M1379.88334,64.30243l-68.80786-.04c-9.22676-.0045-16.71122,7.81233-16.71047,17.45667l-.005,12.48119c.00075,9.64634-7.48372,17.46317-16.71,17.45717l-134.12213-.079c-9.22676-.0045-16.70673-7.83033-16.70523-17.47667l.00325-12.48119c.001-9.64634-7.479-17.47167-16.70672-17.47641l-24.19919-.015-60.22384-.035a54.14248,54.14248,0,0,0-54.17254,54.1318l-.16993,868.44069a54.14165,54.14165,0,0,0,54.10934,54.155l354.18738.20641a54.14275,54.14275,0,0,0,54.17254-54.1303l.16993-868.44369A54.14242,54.14242,0,0,0,1379.88334,64.30243Z" transform="translate(-388.85063)"/><path class="cls-1" d="M1433.96766,246.83843V117.45413a54.13171,54.13171,0,0,0-54.08407-53.1517l-68.80836-.04c-9.22673-.0045-16.711,7.81233-16.71022,17.45642l-.005,12.48144c.001,9.64634-7.484,17.46292-16.71,17.45717l-134.12213-.079c-9.22676-.0045-16.70673-7.83033-16.70548-17.47667l.0035-12.48144c.00075-9.64609-7.47872-17.47142-16.70672-17.47616l-24.19919-.015-60.22384-.035a54.14232,54.14232,0,0,0-54.17254,54.1318l-.02524,128.99071h462.469Z" transform="translate(-388.85063)"/><ellipse class="cls-6" cx="676.97473" cy="366.38191" rx="56.05345" ry="55.93389"/><path class="cls-4" d="M1039.65277,380.37955l14.67206-1.24525,35.84521,6.0378,4.22954,26.96757-.60076,3.13723a56.35159,56.35159,0,0,1-53.13371,1.2215l-1.01234-36.11885" transform="translate(-388.85063)"/><path class="cls-4" d="M1082.5039,384.74128a19.174,19.174,0,0,1,18.59021,8.17144,104.49945,104.49945,0,0,1,6.66058,10.5892c-5.82641,6.33868-10.57374,11.16373-18.68345,13.97809Z" transform="translate(-388.85063)"/><path class="cls-4" d="M1039.65277,380.37955s-9.69856,1.18627-13.46529,9.45491c-3.76647,8.26865-4.62162,10.8686-4.62162,10.8686,5.02121,6.0318,11.39415,13.17366,19.21521,15.85282,0,0,1.783-20.82806,2.02043-26.72142C1043.06139,383.37883,1043.31429,380.19362,1039.65277,380.37955Z" transform="translate(-388.85063)"/><path class="cls-3" d="M1048.53167,327.4a26.54235,26.54235,0,0,1,20.54293-10.20286c4.6661-.077,6.59707.89064,9.95746,1.79552a14.73032,14.73032,0,0,1,8.39684,5.54276c2.38129,3.37213,4.38123,7.14835,4.8313,11.24919a68.91529,68.91529,0,0,1,.607,12.67836,23.12031,23.12031,0,0,1-3.96214,11.91092l-10.77439,1.868c-5.95033.20242-11.98314.39684-17.78054-.95736-5.7969-1.35495-11.42936-4.46719-14.5341-9.53664C1041.50277,344.70451,1043.2938,333.78868,1048.53167,327.4Z" transform="translate(-388.85063)"/><path class="cls-3" d="M1038.08891,358.61287a8.0224,8.0224,0,0,1,3.64727-6.0508,5.80033,5.80033,0,0,1,6.80149.588l1.69284,2.01343a6.93738,6.93738,0,0,1,4.0006,6.99841,7.60785,7.60785,0,0,1-5.2841,6.22173,8.44857,8.44857,0,0,1-8.03175-1.93622A9.42677,9.42677,0,0,1,1038.08891,358.61287Z" transform="translate(-388.85063)"/><path class="cls-4" d="M1040.22429,365.86293a3.63435,3.63435,0,0,1-.58-2.13938,9.71558,9.71558,0,0,1,2.46625-4.833,14.5687,14.5687,0,0,1,4.3175-3.4541c1.26224-.67623,2.13013-.92338,2.10317-1.01159a5.88754,5.88754,0,0,0-2.26786.67647,12.98383,12.98383,0,0,0-4.55615,3.44786,12.73327,12.73327,0,0,0-1.742,2.64368,5.79963,5.79963,0,0,0-.69447,2.519,3.02712,3.02712,0,0,0,.483,1.70481C1039.99738,365.765,1040.20457,365.88567,1040.22429,365.86293Z" transform="translate(-388.85063)"/><path class="cls-7" d="M1078.03146,382.81656s-.058-9.9922-.05772-9.97471c0,0,8.78544-.96586,11.213-12.2018,1.207-5.588,1.43142-14.84623,1.3702-22.42716-.05521-6.82373-5.87837-16.116-14.3217-16.1457l-3.75223-.43508-14.36417,5.69719a3.99739,3.99739,0,0,0-3.797,3.84844l-.43108,47.99355,6.57858,9.22126a9.6811,9.6811,0,0,0,17.56213-5.576Z" transform="translate(-388.85063)"/><path class="cls-8" d="M1072.29656,358.01012a2.3918,2.3918,0,0,1,.82864-1.47566,2.45469,2.45469,0,0,1,2.97205-.16893,3.27124,3.27124,0,0,1,1.24624,3.07376h0a2.983,2.983,0,0,1-2.13463,1.2355,3.57523,3.57523,0,0,1-.40082.01274,2.67918,2.67918,0,0,1-1.80529-.71321A2.38,2.38,0,0,1,1072.29656,358.01012Z" transform="translate(-388.85063)"/><path class="cls-3" d="M1085.37649,346.044a1.45776,1.45776,0,0,1-1.4854,1.38968,1.39411,1.39411,0,0,1-1.42992-1.39243,1.45859,1.45859,0,0,1,1.4839-1.39094A1.39537,1.39537,0,0,1,1085.37649,346.044Z" transform="translate(-388.85063)"/><path class="cls-3" d="M1087.76077,342.42044c-.19117.17992-1.25-.69547-2.81811-.77744-1.56486-.10421-2.75963.63774-2.91906.43682-.07922-.08946.1242-.42133.64473-.75794a4.01255,4.01255,0,0,1,2.3498-.58426,3.85064,3.85064,0,0,1,2.22987.85565C1087.70979,341.98886,1087.85423,342.34047,1087.76077,342.42044Z" transform="translate(-388.85063)"/><path class="cls-3" d="M1077.909,354.27138a10.41425,10.41425,0,0,1,2.57121-.31937c.40259-.01924.78593-.07772.8684-.34636a2.02981,2.02981,0,0,0-.20217-1.19851q-.48468-1.4814-1.01659-3.10674c-1.40543-4.42046-2.39977-8.04674-2.2211-8.10147.17918-.05523,1.46391,3.48359,2.86959,7.904q.50491,1.63432.96561,3.12173a2.31111,2.31111,0,0,1,.12145,1.57936,1.00622,1.00622,0,0,1-.69047.548,2.71873,2.71873,0,0,1-.685.057A10.25866,10.25866,0,0,1,1077.909,354.27138Z" transform="translate(-388.85063)"/><path class="cls-8" d="M1077.97349,372.8416a28.98681,28.98681,0,0,1-14.99017-4.88252s3.62055,8.07873,15.04814,7.64065Z" transform="translate(-388.85063)"/><path class="cls-3" d="M1073.23591,355.10054c.25564-.00074.16568,1.69757,1.55612,2.9823,1.38694,1.28872,3.21145,1.19726,3.2117,1.43541.018.108-.42233.30788-1.18877.28664a4.24719,4.24719,0,0,1-2.68616-1.10231,3.68259,3.68259,0,0,1-1.19577-2.49448C1072.90729,355.49488,1073.12021,355.0843,1073.23591,355.10054Z" transform="translate(-388.85063)"/><path class="cls-3" d="M1087.4494,336.52433c-.28439.3676-1.47089.04648-2.87984.08621-1.4099-.00575-2.591.34411-2.88058-.01674-.12795-.17543.04548-.53928.553-.89714a4.47246,4.47246,0,0,1,4.64114-.056C1087.39567,335.98629,1087.5741,336.3454,1087.4494,336.52433Z" transform="translate(-388.85063)"/><path class="cls-3" d="M1068.18671,345.93876a1.45694,1.45694,0,0,0,1.38119,1.49314,1.39435,1.39435,0,0,0,1.52665-1.286,1.45794,1.45794,0,0,0-1.37944-1.49389A1.39551,1.39551,0,0,0,1068.18671,345.93876Z" transform="translate(-388.85063)"/><path class="cls-3" d="M1066.27848,341.85991c.17743.19292,1.29672-.6035,2.86659-.57252,1.56836.00875,2.7064.83517,2.88008.646.08521-.08346-.09371-.42932-.58824-.80242a4.01343,4.01343,0,0,0-2.30157-.7522,3.8549,3.8549,0,0,0-2.28584.69272C1066.36045,341.43284,1066.19076,341.7732,1066.27848,341.85991Z" transform="translate(-388.85063)"/><path class="cls-3" d="M1065.37709,338.49753c.30263.36085,1.52064.013,2.977.02074,1.45641-.03749,2.68516.28563,2.97554-.08122.1277-.17868-.06047-.53828-.59351-.88439a4.50086,4.50086,0,0,0-2.40977-.62525,4.45025,4.45025,0,0,0-2.38628.67373C1065.41883,337.958,1065.24365,338.32135,1065.37709,338.49753Z" transform="translate(-388.85063)"/><path class="cls-7" d="M1056.27306,350.22552c.04446-.84391-.82394-2.88783-1.6521-3.06376-2.21211-.46906-6.243-.51079-6.59108,5.14092-.47631,7.72537,7.39475,6.60882,7.42224,6.38816C1055.47338,358.51841,1056.1196,353.14059,1056.27306,350.22552Z" transform="translate(-388.85063)"/><path class="cls-8" d="M1053.49016,355.73754c-.03248-.02649-.14069.08621-.37484.17643a1.3549,1.3549,0,0,1-1.00984-.04124c-.79943-.34961-1.40818-1.68756-1.36-3.0825a4.44782,4.44782,0,0,1,.4963-1.904,1.5574,1.5574,0,0,1,1.07831-.97035.68831.68831,0,0,1,.77318.41708c.09047.22266.03174.3741.072.38934.02049.021.17417-.119.13146-.44157a.85983.85983,0,0,0-.27516-.5033,1.023,1.023,0,0,0-.7337-.2424,1.89869,1.89869,0,0,0-1.4824,1.11155,4.56936,4.56936,0,0,0-.60025,2.12464c-.04674,1.55987.66223,3.06551,1.76205,3.4571a1.45011,1.45011,0,0,0,1.24573-.12895C1053.46467,355.92371,1053.5159,355.75328,1053.49016,355.73754Z" transform="translate(-388.85063)"/><path class="cls-3" d="M1054.30483,347.18375l1.96721,2.03643c8.4943-8.11371,25.09507-28.428,24.16845-27.21747a24.77922,24.77922,0,0,0-12.13533-1.315c-6.31619,1.07406-18.29633,4.22853-18.11266,11.662C1050.37643,339.78375,1054.30483,347.18375,1054.30483,347.18375Z" transform="translate(-388.85063)"/><path class="cls-4" d="M1043.05539,345.4782a2.01189,2.01189,0,0,1,.11821-.44707,7.8552,7.8552,0,0,1,.528-1.218,11.26136,11.26136,0,0,1,3.23569-3.633,21.18863,21.18863,0,0,1,6.51438-3.127c2.58968-.84191,5.50925-1.49489,8.37483-2.72265a37.9794,37.9794,0,0,0,7.64915-4.27526,39.55511,39.55511,0,0,0,5.39856-4.70984,42.14167,42.14167,0,0,0,3.122-3.69675c.31687-.43433.574-.78718.77643-1.06507a2.05688,2.05688,0,0,1,.29139-.35936,2.0103,2.0103,0,0,1-.22466.40359c-.16194.25465-.39032.63849-.71769,1.11055a35.54128,35.54128,0,0,1-3.04279,3.79821,37.81363,37.81363,0,0,1-5.38831,4.8133,37.15808,37.15808,0,0,1-7.71163,4.34574,85.55924,85.55924,0,0,1-8.41659,2.70565,21.4786,21.4786,0,0,0-6.45811,3.00378,11.62094,11.62094,0,0,0-3.26769,3.48359C1043.26856,344.87519,1043.09563,345.49319,1043.05539,345.4782Z" transform="translate(-388.85063)"/><path class="cls-4" d="M1045.30873,346.6942a4.05683,4.05683,0,0,1,.30063-1.68806,7.89558,7.89558,0,0,1,2.90907-3.63778,17.55338,17.55338,0,0,1,6.46063-2.527,38.2729,38.2729,0,0,0,8.028-2.54222,34.02053,34.02053,0,0,0,7.15709-4.40872,34.9243,34.9243,0,0,0,4.90676-4.81254,36.935,36.935,0,0,0,2.73565-3.75223c.26664-.43933.48355-.79743.65623-1.08157a.22285.22285,0,1,1,.07.038c-.15616.29538-.35261.667-.594,1.123a31.47021,31.47021,0,0,1-2.65067,3.85019,33.328,33.328,0,0,1-12.11634,9.40394,37.37371,37.37371,0,0,1-8.11021,2.53747,17.70932,17.70932,0,0,0-6.38067,2.4,7.9793,7.9793,0,0,0-2.92731,3.46434A9.22466,9.22466,0,0,0,1045.30873,346.6942Z" transform="translate(-388.85063)"/><path class="cls-3" d="M1040.78107,416.4984a105.60449,105.60449,0,0,1,0-14.77326,105.60856,105.60856,0,0,1,0,14.77326Z" transform="translate(-388.85063)"/><path class="cls-3" d="M1093.82406,415.46907a15.55705,15.55705,0,0,1,.08722-2.62468,29.48281,29.48281,0,0,0-.21642-6.26322,30.95947,30.95947,0,0,0-1.8-6.01806,15.40683,15.40683,0,0,1-.90538-2.47274,11.90777,11.90777,0,0,1,1.24325,2.33605,24.88228,24.88228,0,0,1,1.973,6.07379,23.89142,23.89142,0,0,1,.07022,6.37241A11.60507,11.60507,0,0,1,1093.82406,415.46907Z" transform="translate(-388.85063)"/><path class="cls-1" d="M1363.54971,437.39693H1172.51866a17.17579,17.17579,0,0,1-17.17577-17.17578V340.00641l-21.059-18.69542h229.26578a17.17588,17.17588,0,0,1,17.17579,17.176v81.73412A17.17582,17.17582,0,0,1,1363.54971,437.39693Z" transform="translate(-388.85063)"/><path class="cls-6" d="M1350.45727,450.39291c0,.35961-9.12455.65074-20.37771.65074-11.25722,0-20.37977-.29113-20.37977-.65074,0-.3591,9.12255-.65048,20.37977-.65048C1341.33272,449.74243,1350.45727,450.03381,1350.45727,450.39291Z" transform="translate(-388.85063)"/><path class="cls-9" d="M1358.88935,451.99651a.64919.64919,0,0,1-.45157-.19292l-3.94115-4.12782a.6248.6248,0,1,1,.90288-.8639l3.49709,3.66176,7.66039-7.79459a.62557.62557,0,0,1,.89339.8759l-8.11446,8.2549A.62947.62947,0,0,1,1358.88935,451.99651Z" transform="translate(-388.85063)"/><path class="cls-9" d="M1364.52182,451.86707h-.01475l-.7247-.01825a.62543.62543,0,0,1-.61-.64074.661.661,0,0,1,.63924-.60875l.4541.01225,7.924-8.06324a.62557.62557,0,0,1,.89314.87615l-8.11447,8.2559A.628.628,0,0,1,1364.52182,451.86707Z" transform="translate(-388.85063)"/><path class="cls-6" d="M1350.45727,764.44235c0,.3596-9.12455.651-20.37771.651-11.25722,0-20.37977-.29139-20.37977-.651,0-.3591,9.12255-.65074,20.37977-.65074C1341.33272,763.79161,1350.45727,764.08325,1350.45727,764.44235Z" transform="translate(-388.85063)"/><path class="cls-9" d="M1358.88935,766.04645h-.005a.62162.62162,0,0,1-.44657-.19292l-3.94115-4.12658a.625.625,0,0,1,.01949-.88364.63152.63152,0,0,1,.88339.01949l3.49709,3.66077,7.66039-7.79459a.62478.62478,0,1,1,.89339.87364l-8.11446,8.25591A.63069.63069,0,0,1,1358.88935,766.04645Z" transform="translate(-388.85063)"/><path class="cls-9" d="M1364.52182,765.917h-.017l-.725-.01949a.6258.6258,0,0,1-.60751-.64174.57926.57926,0,0,1,.64174-.60775l.45382.01224,7.92179-8.06073a.62469.62469,0,1,1,.89314.87365l-8.11447,8.2559A.62925.62925,0,0,1,1364.52182,765.917Z" transform="translate(-388.85063)"/><path class="cls-5" d="M1361.1067,344.28193c0,.35935-41.70781.65074-93.14474.65074-51.45489,0-93.15348-.29139-93.15348-.65074s41.69859-.65049,93.15348-.65049C1319.39889,343.63144,1361.1067,343.92258,1361.1067,344.28193Z" transform="translate(-388.85063)"/><path class="cls-5" d="M1361.1067,357.96738c0,.35936-41.70781.65074-93.14474.65074-51.45489,0-93.15348-.29138-93.15348-.65074s41.69859-.65073,93.15348-.65073C1319.39889,357.31665,1361.1067,357.608,1361.1067,357.96738Z" transform="translate(-388.85063)"/><path class="cls-5" d="M1361.1067,371.65283c0,.35936-41.70781.65074-93.14474.65074-51.45489,0-93.15348-.29138-93.15348-.65074s41.69859-.65073,93.15348-.65073C1319.39889,371.0021,1361.1067,371.29348,1361.1067,371.65283Z" transform="translate(-388.85063)"/><ellipse class="cls-6" cx="676.97473" cy="715.15646" rx="56.05345" ry="55.9337"/><path class="cls-4" d="M1039.65277,729.15391l14.67206-1.245,35.84521,6.0378,4.22954,26.96757-.60076,3.13723a56.35159,56.35159,0,0,1-53.13371,1.2215l-1.01234-36.1191" transform="translate(-388.85063)"/><path class="cls-4" d="M1082.5039,733.51589a19.17411,19.17411,0,0,1,18.59021,8.17119,104.51586,104.51586,0,0,1,6.66058,10.58945c-5.82641,6.33843-10.57374,11.16373-18.68345,13.97809Z" transform="translate(-388.85063)"/><path class="cls-4" d="M1039.65277,729.15391s-9.69856,1.18652-13.46529,9.45516c-3.76647,8.26865-4.62162,10.86835-4.62162,10.86835,5.02121,6.032,11.39415,13.17366,19.21521,15.85307,0,0,1.783-20.82831,2.02043-26.72142C1043.06139,732.15344,1043.31429,728.968,1039.65277,729.15391Z" transform="translate(-388.85063)"/><path class="cls-3" d="M1048.53167,676.17463a26.54232,26.54232,0,0,1,20.54293-10.20286c4.6661-.077,6.59707.89064,9.95746,1.79552a14.73116,14.73116,0,0,1,8.39684,5.54251c2.38129,3.37238,4.38123,7.1486,4.8313,11.24918a68.9192,68.9192,0,0,1,.607,12.67862,23.11945,23.11945,0,0,1-3.96214,11.91067l-10.77439,1.868c-5.95033.20267-11.98314.39709-17.78054-.95736-5.7969-1.3547-11.42936-4.46694-14.5341-9.53664C1041.50277,693.47912,1043.2938,682.56329,1048.53167,676.17463Z" transform="translate(-388.85063)"/><path class="cls-3" d="M1038.08891,707.38748a8.0224,8.0224,0,0,1,3.64727-6.0508,5.80033,5.80033,0,0,1,6.80149.588l1.69284,2.01344a6.93738,6.93738,0,0,1,4.0006,6.99841,7.60817,7.60817,0,0,1-5.2841,6.22173,8.4492,8.4492,0,0,1-8.03175-1.93622A9.42677,9.42677,0,0,1,1038.08891,707.38748Z" transform="translate(-388.85063)"/><path class="cls-4" d="M1040.22429,714.63754a3.63439,3.63439,0,0,1-.58-2.13938,9.7146,9.7146,0,0,1,2.46625-4.833,14.56465,14.56465,0,0,1,4.3175-3.4541c1.26224-.67623,2.13013-.92338,2.10317-1.01159a5.88938,5.88938,0,0,0-2.26786.67622,12.988,12.988,0,0,0-4.55615,3.44811,12.72692,12.72692,0,0,0-1.742,2.64367,5.79873,5.79873,0,0,0-.69447,2.51873,3.0287,3.0287,0,0,0,.483,1.70506C1039.99738,714.53958,1040.20457,714.66028,1040.22429,714.63754Z" transform="translate(-388.85063)"/><path class="cls-7" d="M1078.08194,732.5078s-.058-9.9922-.0577-9.97471c0,0,8.78542-.96586,11.213-12.2018,1.207-5.588,1.4314-14.84623,1.37018-22.42716-.05523-6.82373-5.87835-16.116-14.3217-16.14546l-3.75223-.43532-14.36417,5.69744a3.997,3.997,0,0,0-3.797,3.84819l-.43108,47.99354,6.57858,9.22152a9.68116,9.68116,0,0,0,17.56213-5.57624Z" transform="translate(-388.85063)"/><path class="cls-8" d="M1072.29656,706.78472a2.39044,2.39044,0,0,1,.82864-1.47565,2.4547,2.4547,0,0,1,2.97205-.16918,3.27189,3.27189,0,0,1,1.24624,3.074h0a2.983,2.983,0,0,1-2.13463,1.23549,3.69567,3.69567,0,0,1-.40082.01275,2.68043,2.68043,0,0,1-1.80529-.71321A2.38034,2.38034,0,0,1,1072.29656,706.78472Z" transform="translate(-388.85063)"/><path class="cls-3" d="M1085.37649,695.76769a1.45759,1.45759,0,0,1-1.4854,1.38969,1.394,1.394,0,0,1-1.42992-1.39244,1.45821,1.45821,0,0,1,1.4839-1.39068A1.39516,1.39516,0,0,1,1085.37649,695.76769Z" transform="translate(-388.85063)"/><path class="cls-3" d="M1087.76077,692.14441c-.19117.17968-1.25-.69572-2.81811-.77768-1.56486-.10421-2.75963.63774-2.91906.43682-.07922-.08947.1242-.42133.64473-.75794a4.01255,4.01255,0,0,1,2.3498-.58427,3.85064,3.85064,0,0,1,2.22987.85566C1087.70979,691.71258,1087.85423,692.06444,1087.76077,692.14441Z" transform="translate(-388.85063)"/><path class="cls-3" d="M1077.909,703.99511a10.42272,10.42272,0,0,1,2.57121-.31913c.40259-.01949.78593-.078.8684-.3466a2.02984,2.02984,0,0,0-.20217-1.19852q-.48468-1.481-1.01659-3.10674c-1.40543-4.42046-2.39977-8.04674-2.2211-8.10146.17918-.05523,1.46391,3.48358,2.86959,7.90429q.50491,1.634.96561,3.12174a2.31039,2.31039,0,0,1,.12145,1.57911,1.00618,1.00618,0,0,1-.69047.548,2.71826,2.71826,0,0,1-.685.057A10.24433,10.24433,0,0,1,1077.909,703.99511Z" transform="translate(-388.85063)"/><path class="cls-8" d="M1077.97349,722.56533a28.98681,28.98681,0,0,1-14.99017-4.88252s3.62055,8.079,15.04814,7.6409Z" transform="translate(-388.85063)"/><path class="cls-3" d="M1073.23591,704.82452c.25564-.00075.16568,1.69731,1.55612,2.982,1.38694,1.28873,3.21145,1.19751,3.2117,1.43542.018.10795-.42233.30787-1.18877.28663a4.24717,4.24717,0,0,1-2.68616-1.1023,3.68161,3.68161,0,0,1-1.19577-2.49424C1072.90729,705.21861,1073.12021,704.808,1073.23591,704.82452Z" transform="translate(-388.85063)"/><path class="cls-3" d="M1087.4494,686.2483c-.28439.3676-1.47089.04623-2.87984.086-1.4099-.0055-2.591.34411-2.88058-.01675-.12795-.17518.04548-.53928.553-.89713a4.4724,4.4724,0,0,1,4.64114-.056C1087.39567,685.71,1087.5741,686.06912,1087.4494,686.2483Z" transform="translate(-388.85063)"/><path class="cls-3" d="M1068.18671,695.66248a1.45718,1.45718,0,0,0,1.38119,1.4934,1.3947,1.3947,0,0,0,1.52665-1.28623,1.4577,1.4577,0,0,0-1.37944-1.49364A1.39532,1.39532,0,0,0,1068.18671,695.66248Z" transform="translate(-388.85063)"/><path class="cls-3" d="M1066.27848,691.58364c.17743.19317,1.29672-.60351,2.86659-.57227,1.56836.0085,2.7064.83491,2.88008.64574.08521-.08347-.09371-.42908-.58824-.80243a4.01518,4.01518,0,0,0-2.30157-.75219,3.853,3.853,0,0,0-2.28584.693C1066.36045,691.15656,1066.19076,691.49692,1066.27848,691.58364Z" transform="translate(-388.85063)"/><path class="cls-3" d="M1065.37709,688.2215c.30263.3606,1.52064.01274,2.977.02074,1.45641-.03773,2.68516.28539,2.97554-.08122.1277-.17892-.06047-.53828-.59351-.88464a4.49864,4.49864,0,0,0-2.40977-.625,4.44587,4.44587,0,0,0-2.38628.67372C1065.41883,687.68172,1065.24365,688.04532,1065.37709,688.2215Z" transform="translate(-388.85063)"/><path class="cls-7" d="M1056.27306,699.00013c.04446-.84416-.82394-2.88783-1.6521-3.06376-2.21211-.46906-6.243-.51079-6.59108,5.14092-.47631,7.72537,7.39475,6.60882,7.42224,6.38816C1055.47338,707.293,1056.1196,701.9152,1056.27306,699.00013Z" transform="translate(-388.85063)"/><path class="cls-8" d="M1053.49016,704.51215c-.03248-.02674-.14069.08621-.37484.17642a1.35607,1.35607,0,0,1-1.00984-.04123c-.79943-.34961-1.40818-1.68781-1.36-3.08275a4.44878,4.44878,0,0,1,.4963-1.904,1.55755,1.55755,0,0,1,1.07831-.9701.68844.68844,0,0,1,.77318.41683c.09047.22291.03174.37435.072.38959.02049.021.17417-.119.13146-.44157a.85983.85983,0,0,0-.27516-.5033,1.02185,1.02185,0,0,0-.7337-.2424,1.89869,1.89869,0,0,0-1.4824,1.11155,4.5685,4.5685,0,0,0-.60025,2.12464c-.04674,1.55962.66223,3.06526,1.76205,3.4571a1.45011,1.45011,0,0,0,1.24573-.129C1053.46467,704.69832,1053.5159,704.52789,1053.49016,704.51215Z" transform="translate(-388.85063)"/><path class="cls-3" d="M1054.30483,695.95836l1.96721,2.03618c8.4943-8.11346,25.09507-28.42773,24.16845-27.21747a24.78084,24.78084,0,0,0-12.13533-1.31472c-6.31619,1.07407-18.29633,4.22854-18.11266,11.662C1050.37643,688.55811,1054.30483,695.95836,1054.30483,695.95836Z" transform="translate(-388.85063)"/><path class="cls-4" d="M1043.05539,694.25256a2.01594,2.01594,0,0,1,.11821-.44682,7.84489,7.84489,0,0,1,.528-1.218,11.25882,11.25882,0,0,1,3.23569-3.633,21.183,21.183,0,0,1,6.51438-3.127c2.58968-.84191,5.50925-1.49514,8.37483-2.72265a37.96772,37.96772,0,0,0,7.64915-4.27551,39.53776,39.53776,0,0,0,5.39856-4.70959,42.14167,42.14167,0,0,0,3.122-3.69675c.31687-.43433.574-.78719.77643-1.06507a2.04406,2.04406,0,0,1,.29139-.35936,2.00558,2.00558,0,0,1-.22466.40334c-.16194.2549-.39032.63874-.71769,1.1108a35.54128,35.54128,0,0,1-3.04279,3.79821,37.81363,37.81363,0,0,1-5.38831,4.8133,37.15808,37.15808,0,0,1-7.71163,4.34574,85.48758,85.48758,0,0,1-8.41659,2.7054,21.48472,21.48472,0,0,0-6.45811,3.004,11.618,11.618,0,0,0-3.26769,3.48359C1043.26856,693.6498,1043.09563,694.26755,1043.05539,694.25256Z" transform="translate(-388.85063)"/><path class="cls-4" d="M1045.30873,695.46881a4.05683,4.05683,0,0,1,.30063-1.68806,7.89558,7.89558,0,0,1,2.90907-3.63778,17.55779,17.55779,0,0,1,6.46063-2.52722,38.24358,38.24358,0,0,0,8.028-2.54222,34.02037,34.02037,0,0,0,7.15709-4.40847,34.92432,34.92432,0,0,0,4.90676-4.81255,36.96205,36.96205,0,0,0,2.73565-3.75222c.26664-.43933.48355-.79743.65623-1.08182a.22279.22279,0,1,1,.07.03824c-.15616.29513-.35261.66673-.594,1.123a31.471,31.471,0,0,1-2.65067,3.84994,33.32472,33.32472,0,0,1-12.11634,9.40419,37.37371,37.37371,0,0,1-8.11021,2.53747,17.70472,17.70472,0,0,0-6.38067,2.4,7.97889,7.97889,0,0,0-2.92731,3.46409A9.22327,9.22327,0,0,0,1045.30873,695.46881Z" transform="translate(-388.85063)"/><path class="cls-3" d="M1040.78107,765.273a105.60806,105.60806,0,0,1,0-14.77351,105.61213,105.61213,0,0,1,0,14.77351Z" transform="translate(-388.85063)"/><path class="cls-3" d="M1093.82406,764.24368a15.55706,15.55706,0,0,1,.08722-2.62468,29.48241,29.48241,0,0,0-.21642-6.26322,30.95947,30.95947,0,0,0-1.8-6.01806,15.4035,15.4035,0,0,1-.90538-2.473,11.9256,11.9256,0,0,1,1.24325,2.3363,24.88228,24.88228,0,0,1,1.973,6.07379,23.89145,23.89145,0,0,1,.07022,6.37241A11.60507,11.60507,0,0,1,1093.82406,764.24368Z" transform="translate(-388.85063)"/><path class="cls-1" d="M1363.54971,748.042H1172.51866a17.17579,17.17579,0,0,1-17.17577-17.17579V688.78077l-21.059-18.69517h229.26578a17.17587,17.17587,0,0,1,17.17579,17.176v43.60457A17.17582,17.17582,0,0,1,1363.54971,748.042Z" transform="translate(-388.85063)"/><path class="cls-5" d="M1361.1067,693.05654c0,.35935-41.70781.65074-93.14474.65074-51.45489,0-93.15348-.29139-93.15348-.65074s41.69859-.65074,93.15348-.65074C1319.39889,692.4058,1361.1067,692.69719,1361.1067,693.05654Z" transform="translate(-388.85063)"/><path class="cls-5" d="M1361.1067,706.742c0,.35936-41.70781.65074-93.14474.65074-51.45489,0-93.15348-.29138-93.15348-.65074s41.69859-.65073,93.15348-.65073C1319.39889,706.09126,1361.1067,706.38264,1361.1067,706.742Z" transform="translate(-388.85063)"/><path class="cls-5" d="M1361.1067,720.42744c0,.35936-41.70781.65074-93.14474.65074-51.45489,0-93.15348-.29138-93.15348-.65074s41.69859-.65073,93.15348-.65073C1319.39889,719.77671,1361.1067,720.06809,1361.1067,720.42744Z" transform="translate(-388.85063)"/><path class="cls-5" d="M1361.1067,385.33829c0,.35935-41.70781.65073-93.14474.65073-51.45489,0-93.15348-.29138-93.15348-.65073s41.69859-.65074,93.15348-.65074C1319.39889,384.68755,1361.1067,384.97893,1361.1067,385.33829Z" transform="translate(-388.85063)"/><path class="cls-5" d="M1361.1067,399.02374c0,.35935-41.70781.65073-93.14474.65073-51.45489,0-93.15348-.29138-93.15348-.65073s41.69859-.65074,93.15348-.65074C1319.39889,398.373,1361.1067,398.66438,1361.1067,399.02374Z" transform="translate(-388.85063)"/><path class="cls-5" d="M1361.1067,415.46907c0,.35936-41.70781.65074-93.14474.65074-51.45489,0-93.15348-.29138-93.15348-.65074s41.69859-.65048,93.15348-.65048C1319.39889,414.81859,1361.1067,415.10972,1361.1067,415.46907Z" transform="translate(-388.85063)"/><path class="cls-3" d="M1175.81407,177.657c0-5.45429,4.1878-9.359,9.82527-9.359a9.34227,9.34227,0,0,1,7.44575,3.2067l-2.68943,2.48175a5.82415,5.82415,0,0,0-4.54891-2.12064,5.79115,5.79115,0,0,0,0,11.5823,5.768,5.768,0,0,0,4.54891-2.14513l2.68943,2.48175a9.29907,9.29907,0,0,1-7.47274,3.23119C1180.00187,187.01594,1175.81407,183.11252,1175.81407,177.657Z" transform="translate(-388.85063)"/><path class="cls-3" d="M1209.82853,178.743v7.963h-4.03136v-7.342c0-2.25009-1.03483-3.28367-2.81886-3.28367-1.94,0-3.33587,1.18977-3.33587,3.74848v6.87721h-4.03164v-19.183h4.03164v6.72227a6.11467,6.11467,0,0,1,4.42193-1.65458C1207.34681,172.59078,1209.82853,174.504,1209.82853,178.743Z" transform="translate(-388.85063)"/><path class="cls-3" d="M1225.77184,178.76853v7.93753h-3.77274v-1.7328c-.7517,1.268-2.19886,1.94022-4.24151,1.94022-3.25545,0-5.19567-1.81077-5.19567-4.21454,0-2.45626,1.7328-4.16232,5.97158-4.16232h3.207c0-1.73255-1.03483-2.74039-3.207-2.74039a6.68448,6.68448,0,0,0-4.0071,1.29223l-1.44719-2.81761a10.6929,10.6929,0,0,1,5.99857-1.68007C1223.31681,172.59078,1225.77184,174.55524,1225.77184,178.76853Zm-4.03139,3.54231v-1.42142h-2.76763c-1.88648,0-2.48174.69772-2.48174,1.62884,0,1.00784.85418,1.68032,2.27433,1.68032A2.97547,2.97547,0,0,0,1221.74045,182.31084Z" transform="translate(-388.85063)"/><path class="cls-3" d="M1238.384,186.03358a5.76864,5.76864,0,0,1-3.28466.8799c-3.2824,0-5.19565-1.68157-5.19565-4.99073v-5.71293h-2.1451v-3.103h2.1451V169.7207h4.03387v3.38612h3.46309v3.103h-3.46309v5.6617a1.6203,1.6203,0,0,0,1.73032,1.83526,2.716,2.716,0,0,0,1.63006-.51729Z" transform="translate(-388.85063)"/><path class="cls-3" d="M1309.69979,205.53293c0,.35935-42.59048.65073-95.11619.65073-52.54419,0-95.12543-.29138-95.12543-.65073s42.58124-.65074,95.12543-.65074C1267.10931,204.88219,1309.69979,205.17357,1309.69979,205.53293Z" transform="translate(-388.85063)"/><circle class="cls-3" cx="1005.1405" cy="173.22603" r="4.42921"/><path class="cls-3" d="M1398.42032,186.135a4.42921,4.42921,0,1,1-4.42917-4.4292A4.429,4.429,0,0,1,1398.42032,186.135Z" transform="translate(-388.85063)"/><path class="cls-3" d="M1398.42032,199.04406a4.42921,4.42921,0,1,1-4.42917-4.42921A4.429,4.429,0,0,1,1398.42032,199.04406Z" transform="translate(-388.85063)"/><path class="cls-3" d="M1034.2822,188.2202a1.24043,1.24043,0,0,1-.73945-.24141l-11.72874-8.60126a1.24991,1.24991,0,0,1,.00974-2.02193l11.72875-8.43908a1.24934,1.24934,0,1,1,1.45941,2.02818l-10.33282,7.43474,10.34258,7.58342a1.2496,1.2496,0,0,1-.73947,2.25734Z" transform="translate(-388.85063)"/><ellipse class="cls-6" cx="951.29313" cy="552.49115" rx="56.05334" ry="55.9337"/><path class="cls-3" d="M1355.48773,585.53738h-29.4753a3.8033,3.8033,0,0,1-3.80321-3.80321h0a3.80314,3.80314,0,0,1,3.80321-3.80321h29.4753a3.80294,3.80294,0,0,1,3.80321,3.80321h0A3.8031,3.8031,0,0,1,1355.48773,585.53738Z" transform="translate(-388.85063)"/><rect class="cls-3" x="950.97645" y="516.11652" width="2.58945" height="13.09344"/><circle class="cls-9" cx="914.05243" cy="560.86888" r="7.60842"/><circle class="cls-9" cx="990.86653" cy="560.36783" r="7.60842"/><path class="cls-9" d="M1342.25359,526.47082s30.937-.37185,35.83448,26.42354c4.89754,26.79589-21.26563,27.29619-28.79033,27.80373-3.41209.23016-10.71216.2539-17.154.14194-14.26125-.2474-24.33816-3.008-27.76727-16.23867a25.14307,25.14307,0,0,1-.77044-4.73882C1302.69913,545.36091,1312.5154,525.75686,1342.25359,526.47082Z" transform="translate(-388.85063)"/><path class="cls-3" d="M1319.81044,567.28228l44.94578.702a8.53124,8.53124,0,0,0,8.66327-8.39709h0a8.53122,8.53122,0,0,0-8.39713-8.66324l-44.94553-.70172a8.53158,8.53158,0,0,0-8.66348,8.3971h0A8.53113,8.53113,0,0,0,1319.81044,567.28228Z" transform="translate(-388.85063)"/><path class="cls-5" d="M1355.42975,558.65677a2.73772,2.73772,0,1,0,2.16038-3.21294A2.7373,2.7373,0,0,0,1355.42975,558.65677Z" transform="translate(-388.85063)"/><path class="cls-5" d="M1324.02973,558.15573a2.73784,2.73784,0,1,0,2.16038-3.21295A2.73767,2.73767,0,0,0,1324.02973,558.15573Z" transform="translate(-388.85063)"/><path class="cls-9" d="M1345.38957,515.85538a4.2679,4.2679,0,1,1-4.26777-4.26777A4.2678,4.2678,0,0,1,1345.38957,515.85538Z" transform="translate(-388.85063)"/><path class="cls-5" d="M1347.55894,557.394c.07372-.012.19467.21116.27264.65548a4.26864,4.26864,0,0,1-.16468,1.89973,5.67691,5.67691,0,0,1-1.50136,2.43551,5.17283,5.17283,0,0,1-6.6648.60876,5.67344,5.67344,0,0,1-1.91775-2.12339,4.26476,4.26476,0,0,1-.50605-1.83851c-.004-.45081.07447-.69222.14919-.69372.19442-.01574.25765.94737,1.07407,2.10115a5.65454,5.65454,0,0,0,1.77953,1.63059,4.41013,4.41013,0,0,0,5.34908-.48855,5.65813,5.65813,0,0,0,1.45466-1.92572C1347.47723,558.37264,1347.36505,557.41378,1347.55894,557.394Z" transform="translate(-388.85063)"/><path class="cls-3" d="M1378.01809,552.019a4.01305,4.01305,0,0,1,.24391.66173c.074.21491.15743.48005.23365.79393.07872.31287.18243.66623.2539,1.06681a21.23836,21.23836,0,0,1,.39384,2.82811,21.92813,21.92813,0,0,1-.6165,6.94718,21.20689,21.20689,0,0,1-.88589,2.71465c-.14067.38159-.30513.71146-.43783,1.00534-.13016.29538-.25914.54178-.3696.7402a.35325.35325,0,1,1-.08271-.04073c.09746-.20392.21366-.45457.33161-.7532.1202-.29738.27292-.62949.40259-1.01209a23.72433,23.72433,0,0,0,.83016-2.7064,23.24965,23.24965,0,0,0,.61051-6.881,23.6569,23.6569,0,0,0-.34062-2.81011c-.06019-.39959-.15193-.75319-.21791-1.06707-.06347-.31487-.13369-.582-.19392-.79992A4.02076,4.02076,0,0,1,1378.01809,552.019Z" transform="translate(-388.85063)"/><path class="cls-3" d="M1304.72456,552.18565a3.98965,3.98965,0,0,0-.2439.66173c-.074.21491-.15744.48006-.23366.79368-.079.31287-.18267.66648-.25414,1.06682a21.28246,21.28246,0,0,0-.39384,2.8281,21.92736,21.92736,0,0,0,.6165,6.94718,21.24892,21.24892,0,0,0,.88589,2.7149c.14072.3816.30512.71121.43782,1.00534.13022.29538.25914.54153.36985.7402a3.99648,3.99648,0,0,0,.3566.60826,4.052,4.052,0,0,0-.27413-.649c-.09747-.20392-.21342-.45481-.33137-.75344-.12045-.29738-.27311-.62925-.40259-1.01184a23.61107,23.61107,0,0,1-.83013-2.70666,23.26112,23.26112,0,0,1-.61078-6.88071,23.67223,23.67223,0,0,1,.34061-2.81036c.06025-.39934.15194-.75294.21816-1.06706.06347-.31463.13345-.582.19367-.79993A4.04038,4.04038,0,0,0,1304.72456,552.18565Z" transform="translate(-388.85063)"/><path class="cls-9" d="M1311.41235,600.52005s9.182-8.98136,28.41473-8.98136,29.05722,8.98136,29.05722,8.98136S1342.09366,618.62222,1311.41235,600.52005Z" transform="translate(-388.85063)"/><path class="cls-1" d="M1033.41605,609.51791h191.0308a17.1759,17.1759,0,0,0,17.17607-17.17579V536.91359l21.05868-18.69517H1033.41605a17.17592,17.17592,0,0,0-17.176,17.176v56.94766A17.17587,17.17587,0,0,0,1033.41605,609.51791Z" transform="translate(-388.85063)"/><path class="cls-5" d="M1215.977,545.31743c0,.35961-39.345.65074-87.86863.65074-48.54032,0-87.87687-.29113-87.87687-.65074,0-.3591,39.33655-.65048,87.87687-.65048C1176.632,544.667,1215.977,544.95833,1215.977,545.31743Z" transform="translate(-388.85063)"/><path class="cls-5" d="M1215.977,560.15642c0,.3596-39.345.65073-87.86863.65073-48.54032,0-87.87687-.29113-87.87687-.65073,0-.35911,39.33655-.65049,87.87687-.65049C1176.632,559.50593,1215.977,559.79731,1215.977,560.15642Z" transform="translate(-388.85063)"/><path class="cls-5" d="M1215.977,574.9954c0,.35961-39.345.65074-87.86863.65074-48.54032,0-87.87687-.29113-87.87687-.65074,0-.3591,39.33655-.65049,87.87687-.65049C1176.632,574.34491,1215.977,574.6363,1215.977,574.9954Z" transform="translate(-388.85063)"/><path class="cls-5" d="M1215.977,589.83439c0,.3596-39.345.65073-87.86863.65073-48.54032,0-87.87687-.29113-87.87687-.65073,0-.35911,39.33655-.65049,87.87687-.65049C1176.632,589.1839,1215.977,589.47528,1215.977,589.83439Z" transform="translate(-388.85063)"/><ellipse class="cls-6" cx="951.29313" cy="863.06031" rx="56.05334" ry="55.93389"/><path class="cls-3" d="M1355.48773,896.10672h-29.4753a3.80334,3.80334,0,0,1-3.80321-3.80345h0a3.8033,3.8033,0,0,1,3.80321-3.80321h29.4753a3.8031,3.8031,0,0,1,3.80321,3.80321h0A3.80315,3.80315,0,0,1,1355.48773,896.10672Z" transform="translate(-388.85063)"/><rect class="cls-3" x="950.97645" y="826.68562" width="2.58945" height="13.09369"/><circle class="cls-9" cx="914.05243" cy="871.43798" r="7.60842"/><circle class="cls-9" cx="990.86653" cy="870.93693" r="7.60842"/><path class="cls-9" d="M1342.25359,837.04017s30.937-.3721,35.83448,26.42354-21.26563,27.29618-28.79033,27.80373c-3.41209.23015-10.71216.25364-17.154.14194-14.26125-.24765-24.33816-3.008-27.76727-16.23892a25.13976,25.13976,0,0,1-.77044-4.73883C1302.69913,855.93026,1312.5154,836.32621,1342.25359,837.04017Z" transform="translate(-388.85063)"/><path class="cls-3" d="M1319.81044,877.85163l44.94578.70171a8.53086,8.53086,0,0,0,8.66327-8.39685h0a8.53159,8.53159,0,0,0-8.39713-8.66348l-44.94553-.70147a8.5312,8.5312,0,0,0-8.66348,8.39685h0A8.53119,8.53119,0,0,0,1319.81044,877.85163Z" transform="translate(-388.85063)"/><path class="cls-5" d="M1355.42975,869.22612a2.73775,2.73775,0,1,0,2.16038-3.2132A2.73767,2.73767,0,0,0,1355.42975,869.22612Z" transform="translate(-388.85063)"/><path class="cls-5" d="M1324.02973,868.72508a2.73787,2.73787,0,1,0,2.16038-3.2132A2.73786,2.73786,0,0,0,1324.02973,868.72508Z" transform="translate(-388.85063)"/><path class="cls-9" d="M1345.38957,826.42472a4.2679,4.2679,0,1,1-4.26777-4.268A4.268,4.268,0,0,1,1345.38957,826.42472Z" transform="translate(-388.85063)"/><path class="cls-5" d="M1347.55894,867.96338c.07372-.01224.19467.21092.27264.65524a4.26991,4.26991,0,0,1-.16468,1.9,5.67835,5.67835,0,0,1-1.50136,2.43551,5.17281,5.17281,0,0,1-6.6648.60875,5.67514,5.67514,0,0,1-1.91775-2.12339,4.26469,4.26469,0,0,1-.50605-1.8385c-.004-.45107.07447-.69247.14919-.69372.19442-.01574.25765.94712,1.07407,2.10115a5.657,5.657,0,0,0,1.77953,1.63034,4.41013,4.41013,0,0,0,5.34908-.48855,5.65577,5.65577,0,0,0,1.45466-1.92572C1347.47723,868.94174,1347.36505,867.98313,1347.55894,867.96338Z" transform="translate(-388.85063)"/><path class="cls-3" d="M1378.01809,862.58831a4.00194,4.00194,0,0,1,.24391.66173c.074.21492.15743.48006.23365.79368.07872.31288.18243.66648.2539,1.06682a21.24435,21.24435,0,0,1,.39384,2.8281,21.92816,21.92816,0,0,1-.6165,6.94719,21.21162,21.21162,0,0,1-.88589,2.7149c-.14067.38159-.30513.71121-.43783,1.00534-.13016.29538-.25914.54153-.3696.7402a.35314.35314,0,1,1-.08271-.04073c.09746-.20392.21366-.45482.33161-.75345.1202-.29738.27292-.62924.40259-1.01184a23.71409,23.71409,0,0,0,.83016-2.70665,23.24708,23.24708,0,0,0,.61051-6.88071,23.66164,23.66164,0,0,0-.34062-2.81036c-.06019-.39934-.15193-.75295-.21791-1.06707-.06347-.31462-.13369-.582-.19392-.79993A4.02113,4.02113,0,0,1,1378.01809,862.58831Z" transform="translate(-388.85063)"/><path class="cls-3" d="M1304.72456,862.75475a4.01376,4.01376,0,0,0-.2439.66173c-.074.21491-.15744.48005-.23366.79393-.079.31262-.18267.66623-.25414,1.06656a21.29306,21.29306,0,0,0-.39384,2.82836,21.92736,21.92736,0,0,0,.6165,6.94718,21.2447,21.2447,0,0,0,.88589,2.71465c.14072.38159.30512.71146.43782,1.00534.13022.29538.25914.54178.36985.7402a3.99285,3.99285,0,0,0,.3566.60851,4.05875,4.05875,0,0,0-.27413-.64924c-.09747-.20392-.21342-.45457-.33137-.7532-.12045-.29763-.27311-.62949-.40259-1.01209a23.62037,23.62037,0,0,1-.83013-2.7064,23.2618,23.2618,0,0,1-.61078-6.881,23.66749,23.66749,0,0,1,.34061-2.81011c.06025-.39959.15194-.75319.21816-1.06707.06347-.31487.13345-.582.19367-.80017A4.04083,4.04083,0,0,0,1304.72456,862.75475Z" transform="translate(-388.85063)"/><path class="cls-9" d="M1311.41235,911.0894s9.182-8.98161,28.41473-8.98161,29.05722,8.98161,29.05722,8.98161S1342.09366,929.19131,1311.41235,911.0894Z" transform="translate(-388.85063)"/><path class="cls-1" d="M1033.41605,920.08725h191.0308a17.17594,17.17594,0,0,0,17.17607-17.176V847.48294l21.05868-18.69542H1033.41605a17.17607,17.17607,0,0,0-17.176,17.176v56.94767A17.17591,17.17591,0,0,0,1033.41605,920.08725Z" transform="translate(-388.85063)"/><path class="cls-1" d="M1033.41605,1006.75937h191.0308a17.176,17.176,0,0,0,17.17607-17.176V971.21678l21.05868-18.69518H1033.41605a17.17587,17.17587,0,0,0-17.176,17.17579v19.88594A17.17592,17.17592,0,0,0,1033.41605,1006.75937Z" transform="translate(-388.85063)"/><path class="cls-5" d="M1215.977,855.88678c0,.35935-39.345.65074-87.86863.65074-48.54032,0-87.87687-.29139-87.87687-.65074s39.33655-.65074,87.87687-.65074C1176.632,855.236,1215.977,855.52743,1215.977,855.88678Z" transform="translate(-388.85063)"/><path class="cls-5" d="M1215.977,870.72551c0,.35961-39.345.651-87.86863.651-48.54032,0-87.87687-.29138-87.87687-.651,0-.3591,39.33655-.65048,87.87687-.65048C1176.632,870.075,1215.977,870.36641,1215.977,870.72551Z" transform="translate(-388.85063)"/><path class="cls-5" d="M1215.977,885.56475c0,.35935-39.345.65073-87.86863.65073-48.54032,0-87.87687-.29138-87.87687-.65073s39.33655-.65074,87.87687-.65074C1176.632,884.914,1215.977,885.20539,1215.977,885.56475Z" transform="translate(-388.85063)"/><path class="cls-5" d="M1215.977,900.40373c0,.35936-39.345.65074-87.86863.65074-48.54032,0-87.87687-.29138-87.87687-.65074s39.33655-.65073,87.87687-.65073C1176.632,899.753,1215.977,900.04438,1215.977,900.40373Z" transform="translate(-388.85063)"/><path class="cls-5" d="M1216.52082,980.42729c0,.35936-38.931.65074-86.944.65074-48.02953,0-86.95225-.29138-86.95225-.65074s38.92272-.65048,86.95225-.65048C1177.58985,979.77681,1216.52082,980.06794,1216.52082,980.42729Z" transform="translate(-388.85063)"/><path class="cls-4" d="M577.27923,944.25021c6.7675,1.38019,12.53817,6.14651,16.17019,12.02137,3.632,5.87512,5.30635,12.77757,5.96458,19.65329,1.27375,13.3026-3.33688,27.97741-9.09106,40.03827-12.95775-7.23532-18.995-23.359-21.544-31.73064-4.02861-13.23214-3.27441-39.5927,8.50031-39.98229" transform="translate(-388.85063)"/><path class="cls-4" d="M607.5717,1034.71753c-3.30316-6.97292-1.95046-15.67314,2.62469-21.88637,4.57464-6.21274,12.00038-10.0022,19.64878-11.01754,3.53656-.46956,7.51195-.24965,10.1104,2.19486,2.42926,2.28508,3.01053,6.06779,2.10964,9.279a19.039,19.039,0,0,1-5.457,8.24466c-8.22193,7.95177-17.63836,14.137-29.03649,13.1854" transform="translate(-388.85063)"/><path class="cls-3" d="M601.96147,1077.51768a15.4937,15.4937,0,0,1-.17368-2.74888c-.05273-1.94946-.12044-4.46819-.20217-7.494-.06522-6.284-.3381-15.24906,2.575-24.62226,2.85409-9.33922,8.023-16.86542,12.82505-21.073a32.02393,32.02393,0,0,1,6.11377-4.40871,19.43782,19.43782,0,0,1,1.838-.90389c.42807-.18892.659-.27314.67347-.24315.1222.19542-3.598,1.70906-8.15844,6.05705-4.59439,4.258-9.55812,11.67576-12.367,20.85779-2.85834,9.18053-2.70791,18.04494-2.81486,24.33214-.02348,3.16271-.04348,5.72692-.10595,7.498A14.55693,14.55693,0,0,1,601.96147,1077.51768Z" transform="translate(-388.85063)"/><path class="cls-3" d="M578.47824,964.3753a5.59644,5.59644,0,0,1,.37985,1.13679c.23415.8544.53478,1.95021.90638,3.30666.77044,2.87583,1.83151,7.05064,3.099,12.22029,2.53723,10.33831,5.84264,24.67125,9.13531,40.5778,3.28867,15.9128,5.94058,30.38219,7.71286,40.87893.88739,5.24837,1.56962,9.5009,2.0032,12.44621.19641,1.39218.3556,2.51748.47955,3.39412a5.55637,5.55637,0,0,1,.10221,1.19427,5.57754,5.57754,0,0,1-.29463-1.16178c-.17019-.8689-.3886-1.984-.65874-3.36389-.56677-3.04451-1.3487-7.24731-2.30556-12.389-1.94421-10.46151-4.70085-24.9004-7.98726-40.80321-3.29092-15.8953-6.48762-30.242-8.85342-40.61628-1.16127-5.09943-2.11064-9.268-2.79861-12.28777-.29913-1.37394-.54128-2.48449-.72971-3.34964A5.60941,5.60941,0,0,1,578.47824,964.3753Z" transform="translate(-388.85063)"/><path class="cls-4" d="M590.31544,1046.62721A51.35719,51.35719,0,0,0,555.1,1015.62c-4.02512-.97786-9.04108-1.1133-11.47135,2.24084-2.43425,3.36013-.72695,8.10571,1.54512,11.5778,9.45417,14.4454,28.2608,22.07955,45.10847,18.31083" transform="translate(-388.85063)"/><path class="cls-3" d="M559.4772,1027.56793a13.20337,13.20337,0,0,1,2.53547.52179,24.89049,24.89049,0,0,1,2.91881.84366c1.1123.40608,2.427.75419,3.78173,1.38844a45.10431,45.10431,0,0,1,4.42845,2.06816,50.58053,50.58053,0,0,1,4.847,2.8351,57.0778,57.0778,0,0,1,9.82428,8.29364,55.93828,55.93828,0,0,1,7.52219,10.43227,48.83684,48.83684,0,0,1,2.41527,5.07269,41.5582,41.5582,0,0,1,1.65784,4.60013,38.01221,38.01221,0,0,1,1.01433,3.90042,23.11858,23.11858,0,0,1,.54,2.99,13.1439,13.1439,0,0,1,.25063,2.57646c-.21541.03673-.60549-3.647-2.457-9.25725a44.42165,44.42165,0,0,0-1.74453-4.49493,51.25115,51.25115,0,0,0-2.45577-4.953,58.162,58.162,0,0,0-7.45272-10.20786,59.42992,59.42992,0,0,0-9.61061-8.21117,53.23454,53.23454,0,0,0-4.72933-2.86834c-1.49689-.88114-2.98179-1.52263-4.32-2.14713C563.0315,1028.57577,559.42047,1027.77185,559.4772,1027.56793Z" transform="translate(-388.85063)"/><path class="cls-10" d="M638.89625,295.27605,629.647,266.426a100.3571,100.3571,0,1,0-24.037,26.73816l-.03422.04449Z" transform="translate(-388.85063)"/><path class="cls-3" d="M638.896,295.27605s-.68572-.014-2.09665-.08447c-1.46366-.07622-3.56806-.18567-6.32969-.32936-5.68619-.31338-14.03829-.77319-24.91115-1.3722a.28118.28118,0,0,1-.26539-.29613.28924.28924,0,0,1,.05973-.15818l.034-.04424.39609.39584a100.2926,100.2926,0,0,1-45.23041,19.86545,97.66181,97.66181,0,0,1-15.50646,1.34c-5.37033-.22141-10.96456-.24091-16.62-1.32422A100.041,100.041,0,0,1,464.20957,274.957a101.22969,101.22969,0,0,1-18.23735-38.98294,99.2788,99.2788,0,0,1,.39884-45.664q.73507-2.8616,1.4744-5.73892c.56377-1.89624,1.32946-3.73574,1.98769-5.614a53.76113,53.76113,0,0,1,2.19062-5.56974q1.30258-2.70566,2.61219-5.4253a43.83075,43.83075,0,0,1,2.9453-5.27836l3.16572-5.1909,3.65727-4.89226,1.8355-2.454c.627-.80667,1.35894-1.52838,2.03467-2.29807A99.85735,99.85735,0,0,1,508.091,119.93838a102.50168,102.50168,0,0,1,46.0086-6.29445,100.08439,100.08439,0,0,1,41.49717,13.68395,100.68025,100.68025,0,0,1,45.757,60.22009,110.02482,110.02482,0,0,1,3.08749,16.50881c.23266,5.40855.68672,10.62619.29013,15.63866a99.76045,99.76045,0,0,1-14.854,46.87225l.02724-.22391c2.94031,9.40918,5.20464,16.65474,6.74952,21.59849.7407,2.39678,1.30622,4.22654,1.70106,5.504.37659,1.22825.54078,1.82976.54078,1.82976s-.24015-.66048-.65824-1.91123c-.42682-1.28548-1.03832-3.127-1.83925-5.53925-1.60435-4.879-3.95565-12.03013-7.00916-21.31686a.27428.27428,0,0,1,.02749-.22491,99.84867,99.84867,0,0,0,14.46689-46.63609c.3711-4.97224-.10471-10.14414-.35411-15.50172a109.48668,109.48668,0,0,0-3.12024-16.34162,99.916,99.916,0,0,0-86.42946-72.92044,101.36559,101.36559,0,0,0-45.42608,6.25546A98.68033,98.68033,0,0,0,469.256,148.703c-.667.75969-1.39044,1.4714-2.00919,2.26808l-1.81126,2.42277-3.61179,4.82854-3.12448,5.12392a42.93094,42.93094,0,0,0-2.90907,5.20939q-1.2936,2.68353-2.58046,5.35408a52.81017,52.81017,0,0,0-2.16362,5.497c-.65024,1.854-1.40843,3.66851-1.9657,5.54025q-.731,2.84023-1.45741,5.66421A98.138,98.138,0,0,0,447.19,235.7027a100.10168,100.10168,0,0,0,47.56347,64.6213,99.14409,99.14409,0,0,0,33.82778,11.96715c5.596,1.09406,11.13674,1.13029,16.45808,1.37294a97.128,97.128,0,0,0,15.37452-1.26373,100.314,100.314,0,0,0,45.023-19.45937.28235.28235,0,0,1,.39635.04873.28572.28572,0,0,1,0,.34736l-.03424.044-.20542-.45407c10.77738.74445,19.056,1.31647,24.69249,1.70581,2.79237.20117,4.92075.3541,6.40065.46056C638.13081,295.20033,638.896,295.27605,638.896,295.27605Z" transform="translate(-388.85063)"/><path class="cls-3" d="M516.0613,213.925a10.17763,10.17763,0,1,1-10.17688-10.17738A10.177,10.177,0,0,1,516.0613,213.925Z" transform="translate(-388.85063)"/><path class="cls-3" d="M556.79128,213.925a10.17787,10.17787,0,1,1-10.17762-10.17738A10.1778,10.1778,0,0,1,556.79128,213.925Z" transform="translate(-388.85063)"/><path class="cls-3" d="M597.41706,208.83609a10.17794,10.17794,0,1,1-13.90361-3.72524A10.17736,10.17736,0,0,1,597.41706,208.83609Z" transform="translate(-388.85063)"/><path class="cls-9" d="M601.45943,663.484,496.08615,652.47724l-44.464-101.18273-34.63571,9.03534S442.58684,667.249,471.199,683.81379c28.61215,16.565,126.49571,19.57681,126.49571,19.57681Z" transform="translate(-388.85063)"/><circle class="cls-3" cx="622.54194" cy="683.81385" r="46.68299" transform="translate(-690.04173 640.48807) rotate(-45)"/><path class="cls-3" d="M622.54238,730.56034a46.74724,46.74724,0,1,1,33.0541-13.6932A46.44051,46.44051,0,0,1,622.54238,730.56034Zm0-93.36565a46.62011,46.62011,0,1,0,32.96513,13.65421A46.31866,46.31866,0,0,0,622.54238,637.19469Z" transform="translate(-388.85063)"/><circle class="cls-3" cx="478.58655" cy="657.79702" r="35.01225" transform="translate(-529.16822 129.87689) rotate(-13.49797)"/><circle class="cls-3" cx="431.77641" cy="539.27207" r="28.6065" transform="translate(-643.70918 463.26116) rotate(-45)"/><path class="cls-3" d="M446.713,520.13673H481.1736a0,0,0,0,1,0,0v13.15951a0,0,0,0,1,0,0H446.713a2.45347,2.45347,0,0,1-2.45347-2.45347v-8.25258a2.45346,2.45346,0,0,1,2.45346-2.45346Z" transform="translate(767.22679 630.57978) rotate(139.81845)"/><path class="cls-3" d="M423.86757,493.08511h34.10684a.3538.3538,0,0,1,.3538.3538V505.891a.3538.3538,0,0,1-.3538.3538H423.86757a2.4534,2.4534,0,0,1-2.4534-2.4534v-8.25287A2.4534,2.4534,0,0,1,423.86757,493.08511Z" transform="translate(550.6855 59.79375) rotate(90)"/><path class="cls-3" d="M405.50626,494.34169h34.1069a.35378.35378,0,0,1,.35378.35378v12.45218a.3538.3538,0,0,1-.3538.3538H405.50646a2.45358,2.45358,0,0,1-2.45358-2.45358v-8.25278a2.45339,2.45339,0,0,1,2.45339-2.45339Z" transform="translate(429.4762 -19.77926) rotate(77.38995)"/><path class="cls-3" d="M386.877,502.14982h34.10657a.3538.3538,0,0,1,.3538.3538v12.45217a.35372.35372,0,0,1-.35372.35372H386.87628a2.45311,2.45311,0,0,1-2.45311-2.45311v-8.25276a2.45382,2.45382,0,0,1,2.45382-2.45382Z" transform="translate(253.16296 -94.53945) rotate(60.00006)"/><rect class="cls-9" x="1012.10902" y="695.80051" width="34.22897" height="232.27342" transform="translate(1905.27072 1156.28661) rotate(156.95954)"/><circle class="cls-3" cx="968.41828" cy="688.68531" r="46.68306" transform="translate(-571.89944 982.36025) rotate(-49.72625)"/><path class="cls-3" d="M968.47638,735.45335a46.81781,46.81781,0,1,1,21.78542-5.43979A46.82831,46.82831,0,0,1,968.47638,735.45335Zm-.1172-93.40938a46.63112,46.63112,0,1,0,44.61091,60.38077l.05848.01949-.05848-.01949a46.62119,46.62119,0,0,0-30.81276-58.28937A46.80646,46.80646,0,0,0,968.35918,642.044Z" transform="translate(-388.85063)"/><circle class="cls-3" cx="1029.22351" cy="818.82437" r="35.0122" transform="translate(-424.14218 1591.21161) rotate(-74.46864)"/><circle class="cls-3" cx="693.13798" cy="927.77039" r="28.60654"/><path class="cls-3" d="M1040.6124,942.89657h34.46037a0,0,0,0,1,0,0v13.15977a0,0,0,0,1,0,0h-34.461a2.4532,2.4532,0,0,1-2.4532-2.4532v-8.25277A2.4538,2.4538,0,0,1,1040.6124,942.89657Z" transform="matrix(0.52041, -0.85392, 0.85392, 0.52041, -692.88178, 1357.62155)"/><path class="cls-3" d="M1070.84743,961.32305h34.107a.35369.35369,0,0,1,.35369.35369V974.129a.35382.35382,0,0,1-.35382.35382h-34.10684a2.45351,2.45351,0,0,1-2.45351-2.45351v-8.25277A2.45347,2.45347,0,0,1,1070.84743,961.32305Z" transform="translate(124.01445 2305.29643) rotate(-108.45872)"/><path class="cls-3" d="M1087.86576,954.31741H1121.973a.35373.35373,0,0,1,.35373.35373v12.45221a.35381.35381,0,0,1-.35381.35381h-34.10643a2.4538,2.4538,0,0,1-2.4538-2.4538v-8.25289A2.45305,2.45305,0,0,1,1087.86576,954.31741Z" transform="translate(461.63698 2402.30265) rotate(-121.06888)"/><path class="cls-3" d="M1103.06507,941.01232h34.107a.35379.35379,0,0,1,.35379.35379v12.45211a.35379.35379,0,0,1-.35379.35379h-34.10692a2.45352,2.45352,0,0,1-2.45352-2.45352V943.4658a2.45348,2.45348,0,0,1,2.45348-2.45348Z" transform="translate(939.4122 2398.96513) rotate(-138.45874)"/><path class="cls-9" d="M608.57629,635.256s3.36788,327.69891,187.27158,334.10981C979.75131,975.77668,987.45845,637.601,987.45845,635.256c0,0-21.719-48.87219-189.441-46.95946C630.29548,590.209,608.57629,635.256,608.57629,635.256Z" transform="translate(-388.85063)"/><rect class="cls-3" x="693.5371" y="538.13584" width="192.17884" height="39.42127" rx="7.3496" transform="translate(1190.4024 1115.69296) rotate(180)"/><rect class="cls-3" x="782.95209" y="218.29525" width="13.42006" height="67.85849" transform="translate(1190.47362 504.449) rotate(180)"/><circle class="cls-9" cx="985.77043" cy="449.71063" r="39.43121" transform="translate(-466.14027 240.2201) rotate(-13.3745)"/><circle class="cls-9" cx="587.67795" cy="447.11431" r="39.43106" transform="translate(-473.19878 141.07918) rotate(-12.7803)"/><path class="cls-9" d="M781.83505,271.44146s-160.3335-1.92772-185.71446,136.942c-25.38121,138.87021,110.21007,141.46341,149.207,144.09384,17.68434,1.19277,55.51651,1.31547,88.902.736,73.90928-1.28323,126.13461-15.58918,143.90565-84.15888a130.31923,130.31923,0,0,0,3.99239-24.5588C986.82794,369.34077,935.95407,267.74146,781.83505,271.44146Z" transform="translate(-388.85063)"/><path class="cls-3" d="M898.14739,482.94972l-232.93356,3.63677a44.21306,44.21306,0,0,1-44.8983-43.51761h0a44.214,44.214,0,0,1,43.51836-44.898l232.93356-3.63627a44.21282,44.21282,0,0,1,44.898,43.51761h0A44.21363,44.21363,0,0,1,898.14739,482.94972Z" transform="translate(-388.85063)"/><path class="cls-5" d="M713.549,438.24709a14.18892,14.18892,0,1,1-11.19621-16.652A14.18883,14.18883,0,0,1,713.549,438.24709Z" transform="translate(-388.85063)"/><path class="cls-5" d="M876.28051,435.65064a14.1888,14.1888,0,1,1-11.19621-16.652A14.188,14.188,0,0,1,876.28051,435.65064Z" transform="translate(-388.85063)"/><path class="cls-3" d="M852.8645,765.39846a63.40681,63.40681,0,1,1-58.61549-67.86A63.40659,63.40659,0,0,1,852.8645,765.39846Z" transform="translate(-388.85063)"/><path class="cls-5" d="M835.70871,764.14472a46.20489,46.20489,0,1,1-42.71344-49.4497A46.20529,46.20529,0,0,1,835.70871,764.14472Z" transform="translate(-388.85063)"/><path class="cls-9" d="M813.42749,772.54307c-.17768-.107-.31287-2.8436-.42858-7.62116-.114-4.78107-.20916-11.58881-.21691-19.91018l.50956.91338c-6.91946-4.03612-14.97669-8.73571-23.77213-13.86513l1.32721.01924c-7.45947,4.1918-15.54694,8.73571-23.98777,13.479-.64874,1.08231.87464-1.47041.718-1.205v.02125l-.0005.028-.00075.057-.002.11321-.00275.2269-.00675.45207-.01374.90338-.02674,1.79878-.05648,3.56655q-.05921,3.54418-.1172,6.99841c-.08846,4.59039-.17343,9.04783-.25515,13.34659l-.64723-1.159c8.68972,5.30835,16.60851,10.14639,23.48472,14.34793l-1.04657-.01574c7.33029-3.94215,13.36784-7.08888,17.62985-9.2575,4.261-2.16387,6.73354-3.34364,6.912-3.23793.17768.105-1.95321,1.49564-6.00332,3.96814-4.04711,2.4685-10.02493,6.0273-17.51789,10.35655l-.51305.29613-.535-.31137c-6.95918-4.05961-14.97618-8.735-23.7721-13.86513l-.65575-.3826.0075-.77843c.04323-4.299.08848-8.7577.1352-13.34809q.04309-3.45273.08646-6.99841l.04873-3.56706.02524-1.799.013-.90338.00624-.45257.00352-.22566.002-.1137v-.057l.00075-.02824.0005-.01374v-.00675c-.15844.2599,1.369-2.29557.72571-1.21526,8.46881-4.69334,16.58252-9.18977,24.06724-13.33709l.68022-.37735.64824.39584c8.68823,5.30785,16.64825,10.17113,23.48473,14.34794l.528.32237-.01773.59251c-.25566,8.64874-.55154,15.59967-.80369,20.33425C813.81635,770.1138,813.60442,772.65,813.42749,772.54307Z" transform="translate(-388.85063)"/><circle class="cls-9" cx="789.66206" cy="216.94274" r="22.11888" transform="translate(-310.96565 621.91646) rotate(-45)"/><path class="cls-5" d="M754.33845,431.70274c1.05482.11345.52853,5.07544,3.62578,11.67252a29.33568,29.33568,0,0,0,7.53171,9.89974,22.73783,22.73783,0,0,0,27.51308,2.513,29.33313,29.33313,0,0,0,9.201-8.37186c4.24078-5.9271,4.62212-10.90133,5.68019-10.82186.41234.00824.84391,1.26074.84491,3.60878a21.97921,21.97921,0,0,1-2.5812,9.58287,29.4419,29.4419,0,0,1-9.96146,11.08276,26.93316,26.93316,0,0,1-34.74792-3.174,29.44119,29.44119,0,0,1-7.78809-12.7031,21.98039,21.98039,0,0,1-.80267-9.89249C753.28012,432.7898,753.93136,431.636,754.33845,431.70274Z" transform="translate(-388.85063)"/><path class="cls-3" d="M967.81715,496.46c-.23616-.1362,2.63843-4.49718,5.40481-12.37249,2.83959-7.83232,5.31609-19.16872,6.50213-31.84858a235.65188,235.65188,0,0,0,.74943-32.614c-.19368-4.17556-.38985-7.55694-.57777-9.88949a19.57482,19.57482,0,0,1-.1282-3.64378,19.56935,19.56935,0,0,1,.632,3.5923c.34361,2.32231.68047,5.70294.99259,9.88874a198.82263,198.82263,0,0,1-.3726,32.79145c-1.19376,12.76883-3.83942,24.20194-6.93393,32.04152a61.62716,61.62716,0,0,1-4.24378,9.01409A19.48343,19.48343,0,0,1,967.81715,496.46Z" transform="translate(-388.85063)"/><path class="cls-3" d="M596.48344,403.84628a19.726,19.726,0,0,1-.79143,3.56606c-.30912,1.13-.67022,2.51548-.99734,4.14707-.34061,1.62734-.81416,3.46009-1.125,5.53a123.13182,123.13182,0,0,0-1.75628,14.56134,120.76238,120.76238,0,0,0,3.16371,35.65005,123.15287,123.15287,0,0,0,4.29351,14.02556c.67023,1.9827,1.45941,3.70325,2.08091,5.24513.6095,1.54862,1.209,2.84859,1.71205,3.90641a19.71173,19.71173,0,0,1,1.40668,3.37064,19.63137,19.63137,0,0,1-1.861-3.14673c-.57527-1.02808-1.24525-2.30356-1.92222-3.83369-.68922-1.52364-1.54313-3.23219-2.27458-5.20939a109.70026,109.70026,0,0,1-4.59963-14.07105,113.4557,113.4557,0,0,1-3.19595-36.0144,109.70132,109.70132,0,0,1,2.04966-14.66005c.37186-2.07516.91138-3.90742,1.32171-5.52851.3971-1.62559.83193-2.99929,1.21726-4.11284A19.55719,19.55719,0,0,1,596.48344,403.84628Z" transform="translate(-388.85063)"/><path class="cls-3" d="M607.8116,634.96334a5.7726,5.7726,0,0,1,.96511.28139c.68647.2334,1.6086.547,2.78437.94686,2.50374.88289,6.08178,2.14463,10.65718,3.758q3.47409,1.24,7.68813,2.74414c2.82961.94561,5.9496,1.83675,9.27524,2.87233,6.678,1.9837,14.1925,4.55041,22.73354,6.55984q6.37166,1.63471,13.33009,3.41987c4.63987,1.16752,9.54738,2.03767,14.58334,3.13048,10.05317,2.30956,20.961,3.87818,32.40061,5.73067a528.884,528.884,0,0,0,150.32456.013c11.44163-1.85075,22.35069-3.41787,32.40511-5.72593,5.03646-1.09206,9.94447-1.9612,14.58461-3.12823q6.95115-1.782,13.33082-3.41762c8.54154-2.00818,16.056-4.57389,22.734-6.55609,3.32565-1.03508,6.4454-1.92522,9.275-2.87058q4.20729-1.5009,7.68788-2.74264c4.57514-1.61235,8.15246-2.87309,10.65618-3.75548,1.17577-.39959,2.09765-.713,2.78414-.94637a5.76381,5.76381,0,0,1,.96484-.28088,5.69207,5.69207,0,0,1-.91663.40508c-.675.26315-1.58186.6165-2.73839,1.06707-2.48549.93687-6.0373,2.27558-10.57971,3.98763q-3.461,1.28912-7.65889,2.8531c-2.82136.98135-5.9341,1.907-9.254,2.97654-6.66632,2.05117-14.175,4.6826-22.71656,6.75151q-6.37392,1.67557-13.3351,3.50533c-4.64336,1.195-9.55537,2.0909-14.59781,3.20795-10.06592,2.3583-20.99176,3.96939-32.45511,5.85638a520.274,520.274,0,0,1-150.66566-.013c-11.46136-1.88873-22.38592-3.50133-32.4506-5.86112-5.0417-1.1178-9.95347-2.01468-14.59633-3.2102q-6.95305-1.82889-13.33435-3.50758c-8.541-2.07041-16.04974-4.70284-22.71629-6.75551-3.31989-1.07006-6.43264-1.99644-9.254-2.978q-4.19191-1.56237-7.65939-2.85484c-4.54266-1.71306-8.09472-3.05252-10.58046-3.98989-1.15653-.45081-2.06367-.80467-2.73864-1.06781A5.6716,5.6716,0,0,1,607.8116,634.96334Z" transform="translate(-388.85063)"/><g class="cls-11"><path d="M608.57629,635.256s21.71919-45.047,189.4412-46.95946c167.722-1.91273,189.441,46.95946,189.441,46.95946S818.27577,718.6969,608.57629,635.256Z" transform="translate(-388.85063)"/></g><path class="cls-5" d="M761.54078,281.82875a1.99276,1.99276,0,0,1-.57652.09671c-.45956.04173-1.01608.092-1.69531.15369-1.48765.15418-3.69326.20067-6.51111.53928a175.72039,175.72039,0,0,0-23.66215,3.92216A171.74864,171.74864,0,0,0,611.37216,383.695a175.65037,175.65037,0,0,0-8.33962,22.48714c-.8669,2.7019-1.33121,4.85828-1.76479,6.2897-.18917.65473-.34436,1.19151-.47231,1.63483a1.978,1.978,0,0,1-.20441.54753,1.94384,1.94384,0,0,1,.07472-.57726c.094-.45182.20791-.99885.34687-1.66658.35184-1.45316.73819-3.63452,1.53237-6.36592a159.43752,159.43752,0,0,1,7.98576-22.72229,169.08892,169.08892,0,0,1,17.6311-31.0709,166.59281,166.59281,0,0,1,66.87839-55.19213,169.10288,169.10288,0,0,1,33.84927-11.41537,159.43986,159.43986,0,0,1,23.82584-3.53007c2.8326-.26164,5.048-.2269,6.54185-.29663.682-.00974,1.241-.01774,1.70256-.02449A1.93964,1.93964,0,0,1,761.54078,281.82875Z" transform="translate(-388.85063)"/><path class="cls-5" d="M604.65763,474.20076c-.15044.06148-1.11705-1.80377-2.27933-4.98972a70.90173,70.90173,0,0,1-4.08059-26.0442c.13194-3.38862.482-5.45978.644-5.447.40883.01849-.15719,8.36286,1.46116,18.46C601.95,466.285,605.04122,474.05807,604.65763,474.20076Z" transform="translate(-388.85063)"/><path class="cls-5" d="M562.60593,461.28875c-.06173.052-.56652-.40459-1.35245-1.34771a24.31479,24.31479,0,0,1-2.8261-4.36623,28.49942,28.49942,0,0,1,4.27926-32.25367,24.28453,24.28453,0,0,1,3.86668-3.47809c1.00434-.70572,1.6106-1.01459,1.65658-.94837.14419.18668-2.10765,1.71256-4.8258,5.02672a29.48651,29.48651,0,0,0-4.14682,31.25582C561.01757,459.08514,562.7936,461.14605,562.60593,461.28875Z" transform="translate(-388.85063)"/><path class="cls-5" d="M791.129,201.5283c-.05448.24515-2.28133-.57477-5.88087-.14369a15.32683,15.32683,0,0,0-13.09394,20.39548c1.1068,3.4526,2.77888,5.13542,2.57846,5.28686-.05573.05273-.519-.30638-1.207-1.1083a13.635,13.635,0,0,1-2.23935-3.87318,15.68987,15.68987,0,0,1,13.87813-21.61724,13.63775,13.63775,0,0,1,4.45394.42383C790.634,201.18369,791.15352,201.45583,791.129,201.5283Z" transform="translate(-388.85063)"/><path class="cls-5" d="M1008.91024,430.97778c-.27214.29389-4.16157-3.41586-10.03368-6.22622-5.84414-2.87334-11.16448-3.63078-11.102-4.02662-.011-.32087,5.58323-.12795,11.67,2.85559C1005.55362,426.51309,1009.16913,430.78761,1008.91024,430.97778Z" transform="translate(-388.85063)"/><path class="cls-5" d="M666.25141,868.47468a1.89659,1.89659,0,0,1-.31787-.48106c-.22215-.40034-.49055-.88439-.81792-1.47415q-1.11892-2.11377-3.03452-5.73093-.978-1.89224-2.15288-4.16431-1.08744-2.34205-2.34805-5.0572c-1.70056-3.62278-3.616-7.75835-5.47428-12.44171q-1.436-3.4992-3.00253-7.31478-1.43266-3.87142-2.975-8.03849c-2.14713-5.52451-3.96515-11.5913-6.109-17.89725-3.91692-12.73108-7.76036-26.8691-11.13349-41.865-3.30066-15.01742-5.83014-29.44732-7.82108-42.61448-1.839-13.1889-3.29692-25.09557-4.09534-35.13451-.48656-5.011-.77969-9.55612-1.02984-13.5475-.27938-3.98914-.46656-7.42774-.54852-10.24235q-.13533-4.08735-.21416-6.47837c-.00925-.67448-.01675-1.22776-.023-1.68582a.29089.29089,0,1,1,.133-.0055c.04122.45632.0912,1.00759.15193,1.67957q.169,2.38329.45806,6.46213c.15944,2.80761.42033,6.23822.76844,10.21786.31887,3.98188.676,8.51555,1.22052,13.514.91436,10.01369,2.46449,21.88888,4.365,35.04354,2.05242,13.13293,4.61213,27.52534,7.90554,42.509,3.36565,14.96194,7.16385,29.07246,11.00779,41.79106,2.10714,6.2982,3.88217,12.36349,5.97983,17.888q1.50051,4.16643,2.89707,8.044,1.51964,3.81781,2.91682,7.32653c1.799,4.69434,3.65052,8.84491,5.28435,12.48818q1.20477,2.73078,2.24584,5.09194,1.11593,2.29257,2.04692,4.206,1.77453,3.681,2.81311,5.83439c.28114.6135.512,1.11705.703,1.53363A1.95241,1.95241,0,0,1,666.25141,868.47468Z" transform="translate(-388.85063)"/><path class="cls-5" d="M568.35959,664.745c-.02549.3586-8.20217.06822-18.26034-.64824-10.06192-.717-18.19538-1.58836-18.16964-1.947.02549-.35836,8.20019-.068,18.2621.64874C560.24988,663.51527,568.38508,664.38666,568.35959,664.745Z" transform="translate(-388.85063)"/><path class="cls-5" d="M474.34546,611.3889c-.31587.17118-4.5744-7.07788-9.51014-16.18894-4.93775-9.1143-8.683-16.639-8.36686-16.81043.31588-.17094,4.5734,7.07638,9.51115,16.19068C470.91536,603.69127,474.66134,611.21772,474.34546,611.3889Z" transform="translate(-388.85063)"/><path class="cls-5" d="M754.86048,947.26773a12.78257,12.78257,0,0,1-2.92756-.3571,61.78238,61.78238,0,0,1-7.81483-1.887,81.36486,81.36486,0,0,1-11.146-4.282,84.81021,84.81021,0,0,1-23.84908-16.7682,81.35876,81.35876,0,0,1-7.80159-9.03984,61.83417,61.83417,0,0,1-4.42-6.715,12.77532,12.77532,0,0,1-1.32646-2.63368c.21191-.1272,2.30157,3.51083,6.47562,8.78769a92.8442,92.8442,0,0,0,7.9133,8.7462,90.98654,90.98654,0,0,0,23.528,16.5423,92.84535,92.84535,0,0,0,10.90732,4.48643C750.77714,946.28988,754.90846,947.02533,754.86048,947.26773Z" transform="translate(-388.85063)"/><path class="cls-5" d="M793.19794,831.65685a8.88814,8.88814,0,0,1-1.75054.17893,45.37049,45.37049,0,0,1-5.04895.14544,66.07752,66.07752,0,0,1-18.32407-2.97279,76.03743,76.03743,0,0,1-11.93417-4.80106,77.69191,77.69191,0,0,1-12.41071-8.01325,67.29258,67.29258,0,0,1-25.93474-59.729,77.7068,77.7068,0,0,1,2.61894-14.5406,76.01942,76.01942,0,0,1,4.64062-11.99814,66.071,66.071,0,0,1,10.33831-15.417,45.37223,45.37223,0,0,1,3.55281-3.58929,8.85917,8.85917,0,0,1,1.32572-1.15653c.0987.10021-1.66284,1.77278-4.49644,5.07819a70.08266,70.08266,0,0,0-9.891,15.48322,77.21541,77.21541,0,0,0-4.4312,11.89168,78.13208,78.13208,0,0,0-2.46225,14.34119,66.82229,66.82229,0,0,0,25.48766,58.6997,78.1061,78.1061,0,0,0,12.15832,7.99126,77.223,77.223,0,0,0,11.71352,4.88177,70.08025,70.08025,0,0,0,18.06666,3.3444C790.76668,831.6616,793.19194,831.51641,793.19794,831.65685Z" transform="translate(-388.85063)"/><path class="cls-5" d="M490.64435,634.86363c-.105.21092-1.933-.72246-5.08594-1.43817a27.88638,27.88638,0,0,0-23.63216,5.66946c-2.48524,2.06816-3.6905,3.729-3.87968,3.58879-.1062-.06.84341-1.94221,3.26968-4.27777a25.8073,25.8073,0,0,1,24.47308-5.87111C489.01126,633.51543,490.71207,634.76217,490.64435,634.86363Z" transform="translate(-388.85063)"/><path class="cls-5" d="M859.65526,386.39386c0,.3596-30.68282.651-68.523.651-37.85341,0-68.52947-.29138-68.52947-.651,0-.35911,30.67606-.65049,68.52947-.65049C828.97244,385.74337,859.65526,386.03475,859.65526,386.39386Z" transform="translate(-388.85063)"/><path class="cls-5" d="M742.7224,542.64851a4.00823,4.00823,0,0,1-1.15828.18843c-.91662.079-2.01868.17393-3.34264.28788-1.45241.1242-3.23194.24015-5.3021.27239-2.06916.04473-4.42746.16268-7.03365.08172a181.16984,181.16984,0,0,1-18.28209-1.09731,185.6732,185.6732,0,0,1-43.59757-10.26709,181.1417,181.1417,0,0,1-16.85167-7.17684c-2.36854-1.09055-4.4262-2.24833-6.258-3.21194-1.83827-.95237-3.37863-1.85025-4.62289-2.60945-1.13379-.69272-2.07766-1.26923-2.86259-1.74879a3.99961,3.99961,0,0,1-.95211-.68572,4.055,4.055,0,0,1,1.08356.45857c.81617.42057,1.798.92587,2.977,1.53312,1.27873.68947,2.84935,1.51914,4.71234,2.40678,1.8565.89813,3.93366,1.99369,6.31594,3.02577,4.70034,2.19836,10.41929,4.54666,16.86566,6.88071a199.5298,199.5298,0,0,0,43.32894,10.20387c6.80974.78768,12.975,1.23824,18.16238,1.36844,2.59245.13944,4.94026.086,7.00291.11046,2.06342.03723,3.8392-.0045,5.29136-.05073,1.32646-.01725,2.43076-.03149,3.34864-.04349A4.04737,4.04737,0,0,1,742.7224,542.64851Z" transform="translate(-388.85063)"/><path class="cls-5" d="M942.198,655.27311a2.444,2.444,0,0,1-.597.27164c-.47581.17842-1.06632.40008-1.79628.674-1.68556.59951-4.00887,1.42618-6.95243,2.47325-3.01577,1.08731-6.72552,2.3573-11.09525,3.639-4.361,1.30647-9.28848,2.93481-14.852,4.32124q-4.16043,1.10019-8.69922,2.30032c-3.02827.78743-6.22,1.43567-9.50265,2.19936-6.55509,1.58811-13.65121,2.83685-21.10094,4.242a442.11229,442.11229,0,0,1-98.28516,6.0373c-7.56668-.483-14.76326-.8539-21.4638-1.62784-3.35189-.3561-6.59907-.609-9.70081-1.02008q-4.647-.635-8.91539-1.21826c-5.69144-.69522-10.78113-1.70831-15.26881-2.47125-4.49343-.7372-8.33037-1.54362-11.45635-2.25333-3.04925-.679-5.45578-1.215-7.20158-1.6036-.758-.18243-1.3712-.33012-1.86524-.44907a2.44645,2.44645,0,0,1-.6255-.19642,2.49019,2.49019,0,0,1,.65448.06647c.50105.08547,1.12306.19167,1.892.32262,1.75629.33062,4.17756.78618,7.24557,1.36345,3.13747.63249,6.98292,1.36544,11.48084,2.03317,4.49218.69322,9.58212,1.64109,15.26981,2.27633q4.25978.54165,8.90689,1.13254c3.098.38384,6.34043.611,9.68634.94312,6.68877.726,13.86986,1.05507,21.418,1.50439,15.11012.60675,31.75213.63924,49.18106-.37535,17.41594-1.126,33.925-3.195,48.845-5.64621,7.43547-1.36945,14.52135-2.57471,21.0707-4.11383,3.27992-.739,6.46987-1.3612,9.49765-2.12114q4.5349-1.15416,8.701-2.21411c5.56724-1.32646,10.50324-2.89032,14.877-4.12807,4.38272-1.21351,8.11-2.41152,11.14673-3.42336,2.97454-.94862,5.32234-1.69732,7.02517-2.2401.74719-.2244,1.35168-.40583,1.83873-.552A2.50392,2.50392,0,0,1,942.198,655.27311Z" transform="translate(-388.85063)"/></svg>